<svg id="Capa_1" enable-background="new 0 0 512 512" height="512" viewBox="0 0 512 512" width="512" xmlns="http://www.w3.org/2000/svg"><g><g><path d="m388.545 272.568c-30.225 40.238-78.345 66.265-132.545 66.265-91.495 0-165.667-74.172-165.667-165.667s74.172-165.666 165.667-165.666c37.301 0 71.723 12.328 99.414 33.131z" fill="#c9dbfd"/><path d="m272.567 272.567c9.15 0 16.567-7.417 16.567-16.567 0-9.149-7.417-16.567-16.567-16.567h-16.567c-9.15 0-16.567 7.417-16.567 16.567s7.417 16.567 16.567 16.567z" fill="#c1e3a0"/><g fill="#aecafc"><path d="m367.514 269.475c-27.936 39.027-72.395 65.421-123.157 68.946 3.847.267 7.727.413 11.643.413 55.575 0 104.754-27.368 134.806-69.359z"/><path d="m358.455 42.975c-28.192-22.217-63.775-35.475-102.455-35.475-3.915 0-7.795.146-11.643.413 34.155 2.372 65.453 15.103 90.789 35.062z"/></g><g fill="#c1e3a0"><path d="m222.866 156.6c0-9.15-7.417-16.567-16.566-16.567h-49.7c-9.15 0-16.566-7.417-16.566-16.567 0-9.149 7.417-16.567 16.566-16.567h16.572c9.149 0 16.566-7.417 16.566-16.567 0-9.149-7.417-16.567-16.566-16.567h-49.713c-20.798 27.689-33.126 62.104-33.126 99.4h115.967c9.149.002 16.566-7.415 16.566-16.565z"/><path d="m173.167 239.434h16.567c9.15 0 16.567-7.417 16.567-16.567s-7.417-16.567-16.567-16.567h-96.083c8.206 40.425 31.132 75.504 62.94 99.4h33.143c9.15 0 16.567-7.417 16.567-16.567s-7.417-16.567-16.567-16.567h-16.567c-9.149 0-16.567-7.417-16.567-16.567 0-9.148 7.417-16.565 16.567-16.565z"/><path d="m421.667 173.167c0-54.195-26.025-102.308-66.257-132.533h-115.977c-9.149 0-16.567 7.417-16.567 16.567 0 9.149 7.417 16.567 16.567 16.567h57.983c9.15 0 16.567 7.417 16.567 16.567s-7.417 16.567-16.567 16.567h-24.85c-9.15 0-16.566 7.417-16.566 16.567s7.417 16.567 16.566 16.567h66.267c9.149 0 16.567 7.417 16.567 16.567 0 9.149-7.417 16.567-16.567 16.567h-33.133c-9.15 0-16.567 7.417-16.567 16.567 0 9.149 7.417 16.567 16.567 16.567h49.7c9.15 0 16.567 7.417 16.567 16.567s-7.417 16.567-16.567 16.567h-16.567c-9.15 0-16.566 7.417-16.566 16.567s7.417 16.567 16.566 16.567h49.707c20.799-27.694 33.127-62.109 33.127-99.405z"/></g><path d="m355.41 40.633c-.001 0-.001 0 0 0h-23.307c40.242 30.221 66.279 78.331 66.279 132.533 0 37.299-12.333 71.712-33.136 99.4h23.294c20.798-27.689 33.126-62.104 33.126-99.4.001-54.194-26.025-102.308-66.256-132.533z" fill="#a8d4a4"/><g><path d="m140.033 425.809c0-20.586-16.689-37.275-37.275-37.275h-57.983c-20.586 0-37.275 16.689-37.275 37.275v28.991c0 9.15 7.417 16.567 16.567 16.567h99.4c9.149 0 16.567-7.417 16.567-16.567v-28.991z" fill="#c9dbfd"/><path d="m140.033 425.809c0-20.586-16.689-37.275-37.275-37.275h-57.983c-20.586 0-37.275 16.689-37.275 37.275v28.991c0 9.15 7.417 16.567 16.567 16.567h99.4c9.149 0 16.567-7.417 16.567-16.567v-28.991z" fill="#c9dbfd"/><path d="m102.758 388.534h-23c20.587 0 37.275 16.689 37.275 37.275v28.991c0 9.149-7.417 16.567-16.567 16.567h23c9.149 0 16.567-7.417 16.567-16.567v-28.992c0-20.586-16.688-37.274-37.275-37.274z" fill="#aecafc"/><path d="m63.633 367.033h20.267v43h-20.267z" fill="#f2cdbe"/><path d="m123.467 282.208v56.625c0 27.731-22.712 50.158-50.55 49.693-27.251-.455-48.85-23.257-48.85-50.511v-55.807z" fill="#f6e2c1"/><path d="m100.467 282.208v56.625c0 23.466-16.265 43.13-38.135 48.343 3.404.817 6.942 1.289 10.586 1.35 27.837.465 50.549-21.962 50.549-49.693v-56.625z" fill="#f2d0ac"/><path d="m98.617 256h-49.7c-18.299 0-33.133 14.834-33.133 33.133v24.85c0 4.575 3.709 8.283 8.283 8.283 16.03 0 29.401-11.384 32.471-26.508.783-3.856 4.173-6.626 8.107-6.626h18.244c3.935 0 7.325 2.77 8.107 6.626 3.069 15.124 16.441 26.508 32.471 26.508 4.575 0 8.283-3.709 8.283-8.283v-24.85c0-18.299-14.834-33.133-33.133-33.133z" fill="#817d84"/><path d="m98.617 256h-23c18.299 0 33.133 14.834 33.133 33.133v24.85c0 1.546-.431 2.988-1.168 4.226 4.717 2.583 10.128 4.057 15.885 4.057 4.575 0 8.283-3.709 8.283-8.283v-24.85c0-18.299-14.834-33.133-33.133-33.133z" fill="#756e79"/><path d="m95.856 421.667-17.119 12.839c-2.945 2.209-6.995 2.209-9.94 0l-17.119-12.839v-33.134h44.178z" fill="#d8e2f3"/><g fill="#edf6ff"><path d="m102.758 388.534h-28.991l23.949 35.924c3.785 5.678 12.428 4.6 14.702-1.834l10.055-28.446c-5.72-3.573-12.474-5.644-19.715-5.644z"/><path d="m25.06 394.177 10.055 28.446c2.274 6.434 10.917 7.512 14.702 1.834l23.949-35.924h-28.991c-7.241.001-13.995 2.072-19.715 5.644z"/></g></g><g><path d="m504.45 425.809c0-20.586-16.689-37.275-37.275-37.275h-57.983c-20.586 0-37.275 16.689-37.275 37.275v28.991c0 9.15 7.417 16.567 16.567 16.567h99.4c9.15 0 16.567-7.417 16.567-16.567v-28.991z" fill="#c9dbfd"/><path d="m504.45 425.809c0-20.586-16.689-37.275-37.275-37.275h-57.983c-20.586 0-37.275 16.689-37.275 37.275v28.991c0 9.15 7.417 16.567 16.567 16.567h99.4c9.15 0 16.567-7.417 16.567-16.567v-28.991z" fill="#c9dbfd"/><path d="m467.175 388.534h-23c20.586 0 37.275 16.689 37.275 37.275v28.991c0 9.149-7.417 16.567-16.567 16.567h23c9.15 0 16.567-7.417 16.567-16.567v-28.992c0-20.586-16.689-37.274-37.275-37.274z" fill="#aecafc"/><path d="m428.05 367.033h20.267v43h-20.267z" fill="#f2cdbe"/><path d="m487.883 282.208v56.625c0 27.731-22.712 50.158-50.55 49.693-27.251-.455-48.85-23.257-48.85-50.511v-55.807z" fill="#f6e2c1"/><path d="m464.883 282.208v56.625c0 23.466-16.265 43.13-38.135 48.343 3.404.817 6.942 1.289 10.586 1.35 27.837.465 50.55-21.962 50.55-49.693v-56.625z" fill="#f2d0ac"/><path d="m463.033 256h-49.7c-18.299 0-33.133 14.834-33.133 33.133v24.85c0 4.575 3.709 8.283 8.283 8.283 16.03 0 29.401-11.384 32.471-26.508.783-3.856 4.173-6.626 8.107-6.626h18.244c3.935 0 7.325 2.77 8.107 6.626 3.07 15.124 16.441 26.508 32.471 26.508 4.575 0 8.283-3.709 8.283-8.283v-24.85c.001-18.299-14.834-33.133-33.133-33.133z" fill="#817d84"/><path d="m463.033 256h-23c18.299 0 33.133 14.834 33.133 33.133v24.85c0 1.546-.431 2.988-1.168 4.226 4.717 2.583 10.128 4.057 15.885 4.057 4.575 0 8.283-3.709 8.283-8.283v-24.85c.001-18.299-14.834-33.133-33.133-33.133z" fill="#756e79"/><path d="m460.272 421.667-17.119 12.839c-2.945 2.209-6.995 2.209-9.94 0l-17.119-12.839v-33.134h44.178z" fill="#d8e2f3"/><g fill="#edf6ff"><path d="m467.175 388.534h-28.992l23.949 35.924c3.785 5.678 12.428 4.6 14.702-1.834l10.055-28.446c-5.719-3.573-12.473-5.644-19.714-5.644z"/><path d="m389.477 394.177 10.055 28.446c2.274 6.434 10.917 7.512 14.702 1.834l23.949-35.924h-28.992c-7.24.001-13.994 2.072-19.714 5.644z"/></g></g><g><path d="m245.866 367.033h20.267v43h-20.267z" fill="#f2cdbe"/><path d="m338.833 438.233c0-27.449-22.251-49.7-49.7-49.7h-66.267c-27.449 0-49.7 22.251-49.7 49.7v49.7c0 9.149 7.417 16.567 16.567 16.567h132.533c9.15 0 16.567-7.417 16.567-16.567z" fill="#c1e3a0"/><g><path d="m272.567 438.233 7.648 44.62c.389 3.113-1.014 6.179-3.625 7.919l-15.996 10.664c-2.782 1.855-6.407 1.855-9.19 0l-15.996-10.664c-2.611-1.74-4.014-4.806-3.625-7.919l7.648-44.62v-3.7h33.119z" fill="#ffe07d"/></g><path d="m278.089 421.667-5.522 16.566h-33.134l-5.522-16.566v-33.134h44.178z" fill="#f1cb86"/><path d="m305.7 265.641v73.192c0 27.731-22.712 50.158-50.55 49.693-27.251-.455-48.85-23.257-48.85-50.511v-72.374z" fill="#f6e2c1"/><path d="m282.7 265.641v73.192c0 23.466-16.265 43.13-38.135 48.343 3.404.817 6.942 1.289 10.586 1.35 27.837.465 50.55-21.962 50.55-49.693v-73.192z" fill="#f2d0ac"/><path d="m289.133 388.533h-23c27.449 0 49.7 22.251 49.7 49.7v49.7c0 9.149-7.417 16.567-16.567 16.567h23c9.149 0 16.567-7.417 16.567-16.567v-49.7c0-27.448-22.251-49.7-49.7-49.7z" fill="#a8d4a4"/><path d="m206.302 391.372 11.047 31.251c2.274 6.434 10.917 7.512 14.702 1.834l23.949-35.924h-33.133c-5.81 0-11.383 1.007-16.565 2.839z" fill="#edf6ff"/><path d="m289.133 388.533h-33.133l23.949 35.924c3.785 5.678 12.428 4.6 14.702-1.834l11.047-31.251c-5.183-1.832-10.755-2.839-16.565-2.839z" fill="#edf6ff"/><path d="m280.85 239.433h-49.7c-18.299 0-33.134 14.834-33.134 33.133v24.85c0 4.575 3.709 8.283 8.283 8.283 12.146 0 22.764-6.536 28.532-16.281.923-1.56 2.566-2.552 4.379-2.552h.446c1.813 0 3.455.992 4.379 2.552 5.768 9.746 16.386 16.281 28.532 16.281h33.133c4.575 0 8.283-3.708 8.283-8.283v-24.85c0-18.298-14.834-33.133-33.133-33.133z" fill="#d2a677"/><path d="m280.85 239.433h-23c18.299 0 33.133 14.834 33.133 33.133v24.85c0 4.575-3.708 8.283-8.283 8.283h23c4.575 0 8.283-3.708 8.283-8.283v-24.85c0-18.298-14.834-33.133-33.133-33.133z" fill="#af8766"/></g></g><g><path d="m239.433 314.767c-4.142 0-7.5 3.358-7.5 7.5v4.142c0 4.142 3.358 7.5 7.5 7.5s7.5-3.358 7.5-7.5v-4.142c0-4.142-3.358-7.5-7.5-7.5z"/><path d="m272.566 314.767c-4.143 0-7.5 3.358-7.5 7.5v4.142c0 4.142 3.357 7.5 7.5 7.5s7.5-3.358 7.5-7.5v-4.142c0-4.142-3.357-7.5-7.5-7.5z"/><path d="m57.2 327.192c-4.142 0-7.5 3.358-7.5 7.5v4.142c0 4.142 3.358 7.5 7.5 7.5s7.5-3.358 7.5-7.5v-4.142c0-4.142-3.358-7.5-7.5-7.5z"/><path d="m90.333 327.192c-4.142 0-7.5 3.358-7.5 7.5v4.142c0 4.142 3.358 7.5 7.5 7.5s7.5-3.358 7.5-7.5v-4.142c0-4.142-3.357-7.5-7.5-7.5z"/><path d="m475.888 381.882c.833-.731 1.654-1.48 2.451-2.264 11.023-10.841 17.095-25.325 17.095-40.785v-10.966c4.929-2.673 8.283-7.894 8.283-13.884v-24.85c0-22.405-18.228-40.633-40.634-40.633h-49.7c-.484 0-.963.02-1.443.037 11.311-23.385 17.227-49.116 17.227-75.37 0-95.485-77.683-173.167-173.167-173.167-28.828 0-57.372 7.229-82.547 20.905-3.64 1.977-4.987 6.531-3.01 10.17s6.53 4.986 10.17 3.01c22.984-12.485 49.052-19.085 75.387-19.085 26.504 0 51.501 6.563 73.466 18.133h-90.033c-13.27 0-24.066 10.796-24.066 24.066 0 13.271 10.796 24.067 24.066 24.067h57.984c4.999 0 9.066 4.067 9.066 9.067 0 4.999-4.067 9.066-9.066 9.066h-24.851c-13.271 0-24.066 10.796-24.066 24.067 0 13.27 10.796 24.066 24.066 24.066h66.267c4.999 0 9.066 4.067 9.066 9.067 0 4.999-4.067 9.066-9.066 9.066h-33.133c-13.271 0-24.067 10.796-24.067 24.067 0 13.27 10.797 24.066 24.067 24.066h49.699c5 0 9.067 4.067 9.067 9.067 0 4.999-4.067 9.066-9.067 9.066h-16.566c-11.568 0-21.253 8.205-23.548 19.1-7.193-11.46-19.935-19.1-34.435-19.1h-49.7c-19.859 0-36.426 14.325-39.937 33.182-.492-.03-.985-.049-1.48-.049h-16.567c-4.999 0-9.066-4.067-9.066-9.067 0-4.999 4.067-9.067 9.066-9.067h16.567c13.27 0 24.066-10.796 24.066-24.066 0-13.271-10.796-24.067-24.066-24.067h-89.802c-.978-5.984-1.613-12.036-1.9-18.133h108.269c13.271 0 24.067-10.796 24.067-24.066 0-13.271-10.796-24.067-24.067-24.067h-49.7c-4.999 0-9.067-4.067-9.067-9.066 0-5 4.067-9.067 9.067-9.067h16.572c13.271 0 24.066-10.796 24.066-24.066 0-13.271-10.796-24.067-24.066-24.067h-33.754c5.094-5.544 10.611-10.768 16.54-15.615 3.207-2.622 3.681-7.347 1.06-10.553-2.623-3.208-7.348-3.682-10.554-1.059-40.438 33.061-63.63 81.949-63.63 134.127 0 26.254 5.916 51.986 17.226 75.37-.48-.017-.959-.037-1.443-.037h-49.7c-22.405 0-40.633 18.228-40.633 40.633v24.85c0 5.99 3.355 11.211 8.284 13.884v10.148c0 17.403 7.723 33.13 19.862 43.81-20.714 3.925-36.43 22.149-36.43 43.986v28.991c0 13.27 10.796 24.066 24.067 24.066h99.4c13.27 0 24.066-10.796 24.066-24.066v-28.992c0-21.726-15.556-39.88-36.112-43.927.833-.731 1.655-1.48 2.452-2.264 11.023-10.841 17.094-25.325 17.094-40.784v-10.966c4.929-2.673 8.283-7.894 8.283-13.884v-12.951c17.25 15.766 37.48 27.901 59.55 35.621v1.362c0 17.095 7.454 32.572 19.224 43.238-29.28 2.468-52.357 27.072-52.357 56.98v49.7c0 13.271 10.796 24.066 24.067 24.066h7.266c4.142 0 7.5-3.358 7.5-7.5s-3.358-7.5-7.5-7.5h-7.267c-5 0-9.067-4.067-9.067-9.066v-49.7c0-15.666 8.587-29.355 21.295-36.635l8.315 23.524c2.005 5.671 6.958 9.657 12.927 10.402.667.083 1.331.124 1.99.124 1.788 0 3.533-.308 5.178-.881l1.351 4.053-7.331 42.766c-.02.112-.036.224-.05.337-.746 5.963 1.894 11.738 6.888 15.077h-4.565c-4.142 0-7.5 3.358-7.5 7.5s3.358 7.5 7.5 7.5h95.6c13.271 0 24.066-10.796 24.066-24.066v-49.7c0-29.787-22.89-54.316-52.001-56.953.599-.543 1.194-1.092 1.774-1.663 11.023-10.841 17.095-25.325 17.095-40.784v-2.18c22.07-7.72 42.299-19.855 59.55-35.621v12.951c0 5.99 3.354 11.211 8.283 13.884v10.148c0 17.403 7.723 33.13 19.862 43.81-20.712 3.922-36.429 22.147-36.429 43.983v28.991c0 13.27 10.796 24.066 24.066 24.066h99.4c13.271 0 24.066-10.796 24.066-24.066v-28.992c.004-21.725-15.552-39.879-36.108-43.926zm-67.844 38.415c-.088.13-.266.4-.749.343-.48-.06-.589-.369-.642-.517l-7.847-22.199c3.249-1.22 6.764-1.892 10.435-1.892h14.979zm30.189-18.243 11.913 17.87-11.443 8.582c-.277.207-.662.207-.939 0l-11.443-8.582zm14.014-6.021h14.978c3.67 0 7.186.672 10.436 1.892l-7.847 22.198c-.053.148-.161.457-.642.517-.486.054-.662-.212-.749-.343zm10.836-132.533c14.135 0 25.634 11.499 25.634 25.633v24.85c0 .432-.352.783-.783.783-12.146 0-22.71-8.621-25.121-20.5-1.486-7.32-7.987-12.633-15.457-12.633h-18.244c-7.47 0-13.971 5.313-15.458 12.634-2.41 11.878-12.975 20.499-25.12 20.499-.432 0-.783-.352-.783-.783v-24.85c0-9.384 5.072-17.603 12.616-22.069.063-.033.123-.071.184-.106 3.777-2.194 8.159-3.458 12.833-3.458zm-124.25-16.567h16.566c13.27 0 24.067-10.796 24.067-24.066 0-13.271-10.797-24.067-24.067-24.067h-49.699c-5 0-9.067-4.067-9.067-9.066 0-5 4.067-9.067 9.067-9.067h33.133c13.27 0 24.066-10.796 24.066-24.066 0-13.271-10.796-24.067-24.066-24.067h-66.267c-4.999 0-9.066-4.067-9.066-9.066 0-5 4.067-9.067 9.066-9.067h24.851c13.271 0 24.066-10.796 24.066-24.066 0-13.271-10.796-24.067-24.066-24.067h-57.984c-4.999 0-9.066-4.067-9.066-9.067 0-4.999 4.067-9.066 9.066-9.066h113.318c37.337 28.958 61.416 74.234 61.416 125.033 0 28.971-7.9 57.23-22.826 81.858-4.452 2.887-8.305 6.617-11.331 10.968-1.071-.589-2.3-.926-3.609-.926h-37.568c-4.999 0-9.066-4.067-9.066-9.067s4.067-9.068 9.066-9.068zm-133.316 25.634c0-14.135 11.499-25.634 25.633-25.634h49.7c14.135 0 25.634 11.499 25.634 25.634v24.85c0 .432-.352.784-.783.784h-33.134c-14.134 0-25.633-11.499-25.633-25.633 0-4.142-3.358-7.5-7.5-7.5s-7.5 3.358-7.5 7.5c0 14.134-11.499 25.633-25.633 25.633-.432 0-.783-.352-.783-.784v-24.85zm-32.345-191.3c4.999 0 9.066 4.067 9.066 9.067 0 4.999-4.067 9.066-9.066 9.066h-16.572c-13.271 0-24.067 10.796-24.067 24.067 0 13.27 10.796 24.066 24.067 24.066h49.7c4.999 0 9.067 4.067 9.067 9.067 0 4.999-4.067 9.066-9.067 9.066h-108.278c1.438-30.696 11.673-59.868 29.223-84.4h45.927zm-149.889 207.866c0-14.134 11.499-25.633 25.633-25.633h49.7c14.134 0 25.633 11.499 25.633 25.633v24.85c0 .432-.352.783-.783.783-12.145 0-22.71-8.621-25.121-20.499-1.486-7.321-7.987-12.634-15.457-12.634h-18.243c-7.471 0-13.972 5.314-15.458 12.634-2.411 11.878-12.976 20.499-25.121 20.499-.432 0-.784-.352-.784-.783v-24.85zm20.294 131.164c-.087.13-.26.4-.749.343-.48-.06-.589-.369-.642-.517l-7.847-22.199c3.249-1.22 6.765-1.892 10.435-1.892h14.978zm30.189-18.243 11.913 17.87-11.443 8.582c-.275.208-.663.209-.94 0l-11.443-8.582zm14.014-6.021h14.978c3.67 0 7.186.672 10.435 1.892l-7.847 22.199c-.052.148-.161.457-.642.517-.48.057-.662-.212-.749-.343zm44.753 58.767c0 4.999-4.067 9.066-9.066 9.066h-99.4c-5 0-9.067-4.067-9.067-9.066v-28.992c0-7.098 2.5-13.621 6.661-18.743l6.383 18.057c2.005 5.671 6.958 9.657 12.928 10.402.667.083 1.331.124 1.99.124 3.703 0 7.23-1.297 10.028-3.623l11.307 8.48c2.788 2.092 6.129 3.137 9.47 3.137s6.683-1.046 9.47-3.137l11.307-8.481c2.798 2.327 6.324 3.623 10.028 3.623.659 0 1.323-.04 1.99-.124 5.969-.745 10.922-4.73 12.927-10.402l6.383-18.057c4.161 5.122 6.661 11.645 6.661 18.743zm-29.179-85.877c-8.131 7.997-18.892 12.298-30.312 12.104-22.869-.382-41.475-19.677-41.475-43.012v-8.957c15.962-3.016 29.004-15.465 32.321-31.807.073-.358.391-.618.757-.618h18.244c.366 0 .685.26.757.618 3.317 16.342 16.358 28.791 32.321 31.807v9.775c0 11.406-4.479 22.092-12.613 30.09zm34.378-90.763c-2.705-9.629-8.872-17.817-17.073-23.135-7.81-12.886-13.687-26.767-17.52-41.226h86.594c4.999 0 9.066 4.067 9.066 9.067 0 4.999-4.067 9.066-9.066 9.066h-16.567c-13.27 0-24.066 10.796-24.066 24.067s10.796 24.067 24.066 24.067h16.567c.263 0 .523.029.783.051v17.298c0 .251.026.496.038.745-.271.024-.545.039-.821.039h-30.59c-7.7-5.974-14.869-12.675-21.411-20.039zm44.686 35.04h7.316c3.157 0 6.215-.612 9.066-1.775v9.242c-5.61-2.176-11.076-4.674-16.382-7.467zm84.743 117.533h-22.322l-2.653-7.959 13.814-20.72 13.814 20.721zm-21.404 15h20.486l6.537 38.132c.006.266-.123.517-.35.668l-15.996 10.664c-.264.176-.604.176-.869 0l-15.996-10.665c-.225-.15-.355-.401-.349-.668zm24.256-49.7h19.119c2.304 0 4.564.193 6.768.55l-8.321 23.54c-.053.148-.161.457-.642.517-.484.054-.661-.212-.749-.343zm-44.952 24.607c-.48-.06-.589-.369-.642-.517l-8.321-23.54c2.205-.357 4.464-.55 6.768-.55h19.12l-16.176 24.264c-.087.131-.271.399-.749.343zm106.272 17.593v49.7c0 4.999-4.067 9.066-9.066 9.066h-41.498c4.995-3.34 7.635-9.115 6.888-15.078-.015-.112-.031-.224-.05-.336l-7.331-42.767 1.351-4.052c1.644.573 3.39.881 5.178.881.658 0 1.323-.041 1.989-.124 5.97-.745 10.923-4.73 12.928-10.402l8.315-23.524c12.709 7.282 21.296 20.971 21.296 36.636zm-45.745-69.31c-8.131 7.997-18.892 12.299-30.312 12.104-22.87-.382-41.476-19.677-41.476-43.012v-25.521c10.536-1.975 19.646-8.025 25.633-16.451 7.37 10.371 19.47 17.156 33.133 17.156h25.634v18.027.077 7.53c0 11.406-4.479 22.092-12.612 30.09zm27.612-48.256v-9.366c4.929-2.673 8.283-7.894 8.283-13.884v-24.763c4.382 4.564 10.538 7.414 17.35 7.414h33.718c-16.487 17.968-36.783 31.844-59.351 40.599zm82.833 17.349v-8.957c15.962-3.016 29.004-15.465 32.32-31.806.073-.358.392-.619.758-.619h18.244c.366 0 .685.26.757.618 3.317 16.342 16.359 28.791 32.321 31.807v9.775c0 11.405-4.479 22.091-12.612 30.09-8.131 7.996-18.85 12.284-30.312 12.104-22.869-.382-41.476-19.677-41.476-43.012zm100.967 116.784c0 4.999-4.067 9.066-9.066 9.066h-99.4c-4.999 0-9.066-4.067-9.066-9.066v-28.992c0-7.098 2.5-13.621 6.661-18.743l6.383 18.057c2.005 5.671 6.958 9.657 12.928 10.402.666.083 1.331.124 1.989.124 3.704 0 7.23-1.297 10.028-3.623l11.308 8.481c2.788 2.091 6.129 3.136 9.47 3.136s6.682-1.045 9.47-3.136l11.307-8.481c2.798 2.327 6.324 3.623 10.029 3.623.658 0 1.323-.041 1.989-.124 5.97-.745 10.923-4.73 12.928-10.402l6.383-18.057c4.159 5.123 6.659 11.645 6.659 18.744z"/><path d="m421.667 346.333c4.143 0 7.5-3.358 7.5-7.5v-4.142c0-4.142-3.357-7.5-7.5-7.5s-7.5 3.358-7.5 7.5v4.142c0 4.143 3.357 7.5 7.5 7.5z"/><path d="m454.8 346.333c4.143 0 7.5-3.358 7.5-7.5v-4.142c0-4.142-3.357-7.5-7.5-7.5s-7.5 3.358-7.5 7.5v4.142c0 4.143 3.357 7.5 7.5 7.5z"/></g></g></svg>